<svg width="25" height="25" viewBox="0 0 25 25" fill="none" xmlns="http://www.w3.org/2000/svg">
<path d="M9.78581 2.74054C9.01801 3.50834 8.25716 3.86481 7.16252 3.86481C6.20674 3.86481 4.84693 3.67944 4.10001 4.43264C3.359 5.17987 3.54355 6.53409 3.54355 7.48378C3.54355 8.57845 3.18705 9.3393 2.41923 10.1071C1.13975 11.3866 0.500011 12.0263 0.5 12.8213C0.50002 13.6163 1.13977 14.2561 2.41926 15.5355C3.2794 16.3957 3.54355 16.951 3.54355 18.1588C3.54355 19.1146 3.35818 20.4744 4.1114 21.2214C4.85864 21.9623 6.21283 21.7778 7.1625 21.7778C8.32821 21.7778 8.88957 22.0058 9.72152 22.8378C10.4299 23.5462 11.3796 24.8214 12.5001 24.8214C13.6205 24.8214 14.5702 23.5462 15.2786 22.8378C16.1105 22.0058 16.6719 21.7778 17.8376 21.7778C18.7872 21.7778 20.1414 21.9623 20.8887 21.2214C21.6419 20.4744 21.4565 19.1146 21.4565 18.1588C21.4565 16.9511 21.7207 16.3956 22.5808 15.5355C23.8603 14.2561 24.5001 13.6163 24.5001 12.8213C24.5001 12.0263 23.8603 11.3866 22.5808 10.1071C21.7207 9.24697 21.4565 8.69161 21.4565 7.48378C21.4565 6.52802 21.6419 5.16822 20.8887 4.4213C20.1415 3.68026 18.7873 3.86481 17.8376 3.86481C16.7426 3.86481 15.9819 3.50818 15.2143 2.74054C13.9348 1.46104 13.295 0.821289 12.5 0.821289C11.7051 0.821289 11.0653 1.46104 9.78581 2.74054Z" fill="#32E886"/>
<path d="M7.95276 13.9041C7.95276 13.9041 9.77171 14.6945 10.6812 15.853C10.6812 15.853 13.4096 11.3056 17.0475 9.78979" stroke="#141B34" stroke-width="1.6" stroke-linecap="round" stroke-linejoin="round"/>
</svg>
