<svg width="21" height="20" viewBox="0 0 21 20" fill="none" xmlns="http://www.w3.org/2000/svg">
<path d="M12.4863 2.9165C15.629 2.9165 17.2004 2.9165 18.1767 3.95384C19.153 4.99116 19.153 6.66072 19.153 9.99984C19.153 13.3389 19.153 15.0085 18.1767 16.0458C17.2004 17.0832 15.629 17.0832 12.4863 17.0832H9.15299C6.01029 17.0832 4.43895 17.0832 3.46264 16.0458C2.48633 15.0085 2.48633 13.3389 2.48633 9.99984C2.48633 6.66072 2.48633 4.99116 3.46264 3.95384C4.43895 2.9165 6.01029 2.9165 9.15299 2.9165H12.4863Z" stroke="#424242" stroke-width="1.25" stroke-linejoin="round"/>
<path d="M4.98633 12.9167C6.32687 11.1356 9.44791 11.0383 10.8197 12.9167M9.36049 8.54183C9.36049 9.34725 8.70759 10.0002 7.90218 10.0002C7.09677 10.0002 6.44384 9.34725 6.44384 8.54183C6.44384 7.73641 7.09677 7.0835 7.90218 7.0835C8.70759 7.0835 9.36049 7.73641 9.36049 8.54183Z" stroke="#424242" stroke-width="1.25" stroke-linecap="round"/>
<path d="M13.3198 7.9165H16.6532" stroke="#424242" stroke-width="1.25" stroke-linecap="round"/>
<path d="M13.3198 11.25H14.9865" stroke="#424242" stroke-width="1.25" stroke-linecap="round"/>
</svg>
